<mxfile host="app.diagrams.net" modified="2024-07-05T02:29:02.648Z" agent="Mozilla/5.0 (Windows NT 10.0; Win64; x64) AppleWebKit/537.36 (KHTML, like Gecko) Chrome/126.0.0.0 Safari/537.36" version="24.6.4" etag="rU9LZkPPmik-cd6kzrPV" type="github">
  <diagram name="หน้า-1" id="KmXKuKY6uaSNG28HzXl6">
    <mxGraphModel>
      <root>
        <mxCell id="0" />
        <mxCell id="1" parent="0" />
      </root>
    </mxGraphModel>
  </diagram>
</mxfile>
